<svg width="200" height="240" viewBox="0 0 200 240" fill="none" xmlns="http://www.w3.org/2000/svg">
  <!-- Shield shape with slight 3D effect -->
  <path d="M100 10L180 40V120C180 170 130 210 100 230C70 210 20 170 20 120V40L100 10Z" fill="#00247D" stroke="#FFFFFF" stroke-width="2"/>
  <path d="M100 20L170 46V120C170 163 124 200 100 215C76 200 30 163 30 120V46L100 20Z" fill="#00247D"/>
  
  <!-- UK Flag Pattern -->
  <!-- White cross (St. George's Cross) -->
  <rect x="30" y="85" width="140" height="30" fill="white"/>
  <rect x="85" y="46" width="30" height="169" fill="white"/>
  
  <!-- Red cross (St. George's Cross) -->
  <rect x="30" y="95" width="140" height="10" fill="#CF142B"/>
  <rect x="95" y="46" width="10" height="169" fill="#CF142B"/>
  
  <!-- White diagonal (St. Andrew's Cross) -->
  <polygon points="30,46 45,46 170,171 170,186" fill="white"/>
  <polygon points="30,186 45,171 170,46 170,61" fill="white"/>
  
  <!-- Red diagonal (St. Patrick's Cross) -->
  <polygon points="36,46 42,46 170,174 170,180" fill="#CF142B"/>
  <polygon points="30,180 36,174 164,46 170,46" fill="#CF142B"/>
  <polygon points="30,52 36,46 164,174 170,174" fill="#CF142B"/>
  <polygon points="164,46 170,52 42,180 36,180" fill="#CF142B"/>
  
  <!-- Gold accents -->
  <path d="M100 35L160 57V120C160 157 120 190 100 203C80 190 40 157 40 120V57L100 35Z" stroke="#FFD700" stroke-width="2" stroke-opacity="0.7" fill="none"/>
  <path d="M100 15L177 43V120C177 168 129 207 100 226C71 207 23 168 23 120V43L100 15Z" stroke="#FFD700" stroke-width="1" stroke-opacity="0.3" fill="none"/>
  
  <!-- Shine effect -->
  <path d="M100 20L170 46V120C170 163 124 200 100 215C76 200 30 163 30 120V46L100 20Z" fill="url(#paint0_linear)" fill-opacity="0.1"/>
  
  <!-- Text -->
  <text x="100" y="145" font-family="Arial, sans-serif" font-weight="bold" font-size="14" text-anchor="middle" fill="#FFD700">UK INSTITUTE</text>
  
  <!-- Definitions -->
  <defs>
    <linearGradient id="paint0_linear" x1="30" y1="20" x2="170" y2="215" gradientUnits="userSpaceOnUse">
      <stop stop-color="white" stop-opacity="0.7"/>
      <stop offset="1" stop-color="white" stop-opacity="0"/>
    </linearGradient>
  </defs>
</svg> 